<svg xmlns="http://www.w3.org/2000/svg" viewBox="0 0 512 512"><defs><style>.cls-1{fill:#fcca01;}</style></defs><title>10</title><g id="Слой_2" data-name="Слой 2"><g id="Слой_1-2" data-name="Слой 1"><path class="cls-1" d="M116,246a10,10,0,1,0,10,10A10,10,0,0,0,116,246Z"/><path class="cls-1" d="M496,202.05a10,10,0,0,0,1.62-9,71.54,71.54,0,0,0-4.6-34.76c-5.09-12.3-15.66-23.6-29.75-31.83a15.66,15.66,0,0,1-7.66-11.44c-2.08-15.26-9.1-30.16-18.78-39.86S412.19,58.52,397,56.45a15.65,15.65,0,0,1-11.46-7.64C378,36,365.06,24.58,351.68,19a65.86,65.86,0,0,0-42.12-2.88A15.91,15.91,0,0,1,296,13.49a66.18,66.18,0,0,0-80.05,0,15.91,15.91,0,0,1-13.51,2.71c-15.23-4-32.26-2.08-44.14,2.86-12.3,5.09-23.6,15.66-31.83,29.75a15.66,15.66,0,0,1-11.44,7.66c-15.27,2.08-30.16,9.1-39.86,18.78S58.52,99.8,56.45,115a15.65,15.65,0,0,1-7.64,11.46C34.7,134.73,24.12,146,19,158.33a71.56,71.56,0,0,0-3.9,39.45c.83,4.65,3.68,11.15-1.65,18.18a66.2,66.2,0,0,0,0,80,15.66,15.66,0,0,1,2.71,13.47c-3.79,14.17-.71,28.74,4.86,42.18,6.11,14.78,16.24,27.11,27.74,33.82a15.71,15.71,0,0,1,7.67,11.45c2.08,15.27,9.1,30.16,18.78,39.86S99.8,453.48,115,455.55a15.65,15.65,0,0,1,11.46,7.64C134.73,477.3,146,487.88,158.32,493a72.68,72.68,0,0,0,44.13,2.87,15.9,15.9,0,0,1,13.5,2.67,66.2,66.2,0,0,0,80.06,0,15.89,15.89,0,0,1,9.55-3.21c5.56,0,22.64,7.39,46.1-2.36,13.39-5.54,26.36-16.94,33.83-29.75a15.66,15.66,0,0,1,11.44-7.66c15.27-2.08,30.17-9.1,39.86-18.78s16.69-24.59,18.76-39.81a15.65,15.65,0,0,1,7.64-11.46C476,378,487.42,365.06,493,351.67a66,66,0,0,0,2.87-42.12A15.7,15.7,0,0,1,498.52,296a66.2,66.2,0,0,0,0-80.05A15.77,15.77,0,0,1,496,202.05ZM482.59,284A35.52,35.52,0,0,0,475.33,306H36.67a35.58,35.58,0,0,0-7.28-22.08,46.21,46.21,0,0,1,0-55.87A35.51,35.51,0,0,0,36.67,206H475.33a35.59,35.59,0,0,0,7.28,22.09,46.21,46.21,0,0,1,0,55.87ZM146.51,326a129.89,129.89,0,0,0,219,0H413.9C386.07,387.28,323.09,429,256,429S125.93,387.29,98.1,326Zm24.71,0H340.78a109.83,109.83,0,0,1-169.56,0ZM365.49,186a129.9,129.9,0,0,0-219,0H98.1C125.93,124.71,188.91,83,256,83s130.07,41.71,157.9,103Zm-24.71,0H171.22a109.85,109.85,0,0,1,169.56,0ZM37.51,166c3.38-8.16,11.17-16.25,21.39-22.22a35.58,35.58,0,0,0,17.37-26c1.48-10.9,6.5-21.78,13.09-28.38s17.49-11.61,28.42-13.1a35.54,35.54,0,0,0,26-17.39c6-10.19,14-18,22.23-21.37a53,53,0,0,1,31.42-2,36.09,36.09,0,0,0,30.66-6.13,46.17,46.17,0,0,1,55.87,0,36.08,36.08,0,0,0,30.68,6.07,46,46,0,0,1,29.39,2c9.26,3.83,19,12.43,24.22,21.39a35.58,35.58,0,0,0,26,17.37c10.9,1.48,21.78,6.5,28.38,13.09s11.61,17.49,13.1,28.42a35.6,35.6,0,0,0,17.39,26c10.2,5.95,18,14.05,21.36,22.21A50.53,50.53,0,0,1,478,186H435.64C406.66,113.23,333.82,63,256,63S105.34,113.23,76.36,186H34A50.75,50.75,0,0,1,37.51,166Zm437,178c-3.83,9.25-12.43,19-21.39,24.22a35.58,35.58,0,0,0-17.37,26c-1.48,10.9-6.5,21.78-13.09,28.38s-17.32,11.59-28.42,13.1a35.57,35.57,0,0,0-26,17.39c-5.22,8.94-15,17.53-24.22,21.37-17.81,7.39-28.76.83-38.44.83a36,36,0,0,0-21.64,7.28,46.19,46.19,0,0,1-55.87,0,36.08,36.08,0,0,0-30.68-6.08,53.2,53.2,0,0,1-31.39-2c-8.16-3.38-16.25-11.17-22.22-21.38a35.56,35.56,0,0,0-26-17.38c-10.9-1.48-21.78-6.5-28.38-13.09s-11.61-17.49-13.1-28.42a35.6,35.6,0,0,0-17.39-26C51,363.65,44,354.83,39.51,344a61.7,61.7,0,0,1-4.84-18H76.36c29,72.77,101.82,123,179.64,123s150.66-50.23,179.64-123H478A46.12,46.12,0,0,1,474.49,344Z"/><path class="cls-1" d="M396,246H156a10,10,0,0,0,0,20H396a10,10,0,0,0,0-20Z"/></g></g></svg>