<svg xmlns="http://www.w3.org/2000/svg" viewBox="0 0 512 419.25"><defs><style>.cls-1{fill:#fcca01;}</style></defs><title>6</title><g id="Слой_2" data-name="Слой 2"><g id="Слой_1-2" data-name="Слой 1"><path class="cls-1" d="M174.68,139.36,98.4,295.08c-5.7,11.64,12.42,20.54,18.14,8.88l68.24-139.3,114.7,234.13H70.08l10.78-22c5.7-11.64-12.43-20.54-18.14-8.88L47.46,399.06H9.73c-13,0-13,20.19,0,20.19H502.27c13,0,13-20.19,0-20.19H464.89L336.82,214.49a10.24,10.24,0,0,0-16.59,0l-51.9,74.81L194.88,139.36V101.5H299.13A10.23,10.23,0,0,0,308,86.61,32.74,32.74,0,0,1,307.34,57a11.8,11.8,0,0,0,.28-11.79,32.72,32.72,0,0,1,0-29.59C311.6,8.92,307.16,0,299.13,0H184.78a10.1,10.1,0,0,0-10.1,10.1ZM194.88,20.2h90A53.06,53.06,0,0,0,288,50.79a53.08,53.08,0,0,0-3.07,30.52h-90ZM278.48,310c.18-.22.36-.44.52-.68L328.53,238l111.6,160.83H322Z"/><path class="cls-1" d="M91.84,326.76a10.09,10.09,0,1,0,7.93,11.87A10.19,10.19,0,0,0,91.84,326.76Z"/></g></g></svg>