<svg xmlns="http://www.w3.org/2000/svg" viewBox="0 0 504.04 512"><defs><style>.cls-1{fill:#fcca01;}</style></defs><title>7</title><g id="Слой_2" data-name="Слой 2"><g id="Layer_1" data-name="Layer 1"><path class="cls-1" d="M331,0C235.58,0,158,77.63,158,173.05a172,172,0,0,0,11.21,61.4L3.69,399.93A12.62,12.62,0,0,0,0,408.85v90.54A12.62,12.62,0,0,0,12.61,512H87.23a12.63,12.63,0,0,0,8.91-3.69l25.14-25.1a12.62,12.62,0,0,0,3.7-8.93V443.41h30.84a12.61,12.61,0,0,0,12.61-12.61V418.44h12.36a12.61,12.61,0,0,0,12.61-12.62V378.69h27.14a12.62,12.62,0,0,0,8.92-3.7l40.12-40.12A171.84,171.84,0,0,0,331,346.1c95.42,0,173.05-77.63,173.05-173S426.42,0,331,0Zm0,320.87a146.73,146.73,0,0,1-59.34-12.39A12.58,12.58,0,0,0,257.79,311l-.12.1-42.35,42.36H180.79a12.61,12.61,0,0,0-12.61,12.61v27.13H155.82a12.62,12.62,0,0,0-12.61,12.61v12.36H112.37a12.62,12.62,0,0,0-12.61,12.61v38.26L82,486.78H25.22V469L179.37,314.82a11.36,11.36,0,1,0-16.06-16.06L25.22,436.85V414.07l167.7-167.71.1-.11a12.6,12.6,0,0,0,2.53-13.87,146.88,146.88,0,0,1-12.38-59.33c0-81.51,66.32-147.83,147.83-147.83S478.82,91.54,478.82,173.05,412.51,320.87,331,320.87Z"/><path class="cls-1" d="M383.66,73.14a47.24,47.24,0,1,0,47.24,47.24A47.29,47.29,0,0,0,383.66,73.14Zm0,69.26a22,22,0,1,1,22-22A22,22,0,0,1,383.66,142.4Z"/></g></g></svg>