<svg xmlns="http://www.w3.org/2000/svg" viewBox="0 0 512 512"><defs><style>.cls-1{fill:#fcca01;}</style></defs><title>8</title><g id="Слой_2" data-name="Слой 2"><g id="Слой_1-2" data-name="Слой 1"><path class="cls-1" d="M437,75A256.31,256.31,0,0,0,169.2,15.1l-5.69-9.8a10,10,0,0,0-8.65-5h0a10,10,0,0,0-8.65,5L106.64,74.27a10,10,0,0,0,8.68,15h0L194.81,89a10,10,0,0,0,8.62-15L200,68.12A195.85,195.85,0,0,1,256,60c108.07,0,196,87.93,196,196S364.07,452,256,452,60,364.07,60,256a10,10,0,0,0-10-10H10A10,10,0,0,0,0,256,256,256,0,0,0,437,437a256,256,0,0,0,0-362ZM256,492C129.22,492,25.47,391.51,20.21,266h20a216,216,0,0,0,368.5,142.73,216,216,0,0,0-227-355.61,10,10,0,0,0-5.21,14.42l.89,1.54-44.82.12,22.3-38.88,1.26,2.16a10,10,0,0,0,12.35,4.26A234.88,234.88,0,0,1,256,20c130.13,0,236,105.87,236,236S386.13,492,256,492Z"/><path class="cls-1" d="M379,133a10,10,0,0,0-14.13,14.16l.07.08A10,10,0,0,0,379.11,133Z"/><path class="cls-1" d="M344.55,117.56A10,10,0,0,0,340.69,104,175.23,175.23,0,0,0,233.1,83.5,174,174,0,0,0,133,379a174,174,0,0,0,272.4-212.38,10,10,0,1,0-17.16,10.28,154,154,0,1,1-241.09-29.83c48.46-48.47,124.05-59,183.84-25.69A10,10,0,0,0,344.55,117.56Z"/><path class="cls-1" d="M266.13,136.5V129a10,10,0,0,0-20,0v7.5a10,10,0,0,0,20,0Z"/><path class="cls-1" d="M245.87,375.5V383a10,10,0,0,0,20,0v-7.5a10,10,0,0,0-20,0Z"/><path class="cls-1" d="M365.5,256.13a10,10,0,0,0,10,10H383a10,10,0,0,0,0-20h-7.5A10,10,0,0,0,365.5,256.13Z"/><path class="cls-1" d="M129,245.87a10,10,0,0,0,0,20h7.5a10,10,0,0,0,0-20Z"/><path class="cls-1" d="M316,256a10,10,0,0,0-10-10H260.14l-75-75A10,10,0,0,0,171,185.17l77.9,77.9A10,10,0,0,0,256,266h50A10,10,0,0,0,316,256Z"/></g></g></svg>