<?xml version="1.0" encoding="utf-8"?>
<!-- Generator: Adobe Illustrator 22.1.0, SVG Export Plug-In . SVG Version: 6.00 Build 0)  -->
<svg version="1.1" id="Слой_1" xmlns="http://www.w3.org/2000/svg" xmlns:xlink="http://www.w3.org/1999/xlink" x="0px" y="0px"
	 width="512px" height="248px" viewBox="0 0 512 248" style="enable-background:new 0 0 512 248;" xml:space="preserve">
<style type="text/css">
	.st0{fill:#FFFFFF;}
</style>
<title>arrow</title>
<g id="Слой_2_1_">
	<g id="Capa_1">
		<path class="st0" d="M492,104H68.4l70.2-69.8c7.8-7.8,7.9-20.5,0.1-28.3c-7.8-7.8-20.5-7.9-28.3-0.1L5.9,109.8l0,0
			c-7.8,7.8-7.8,20.5,0,28.3c0,0,0,0,0,0l0,0l104.5,104c7.8,7.8,20.5,7.8,28.3-0.1c7.8-7.8,7.8-20.5-0.1-28.3l0,0L68.4,144H492
			c11,0,20-9,20-20S503,104,492,104z"/>
	</g>
</g>
</svg>
