<?xml version="1.0" encoding="utf-8"?>
<!-- Generator: Adobe Illustrator 22.1.0, SVG Export Plug-In . SVG Version: 6.00 Build 0)  -->
<svg version="1.1" id="Слой_1" xmlns="http://www.w3.org/2000/svg" xmlns:xlink="http://www.w3.org/1999/xlink" x="0px" y="0px"
	 width="512px" height="128px" viewBox="0 0 512 128" style="enable-background:new 0 0 512 128;" xml:space="preserve">
<style type="text/css">
	.st0{fill:#FFFFFF;}
</style>
<title>11</title>
<g id="Слой_2_1_">
	<g id="Capa_1">
		<path class="st0" d="M493.2,109.3c-25,25-65.5,25-90.5,0s-25-65.5,0-90.5c25-25,65.5-25,90.5,0c0,0,0,0,0,0
			C518.2,43.7,518.2,84.3,493.2,109.3"/>
		<path class="st0" d="M301.2,109.3c-25,25-65.5,25-90.5,0s-25-65.5,0-90.5c25-25,65.5-25,90.5,0c0,0,0,0,0,0
			C326.2,43.7,326.2,84.3,301.2,109.3"/>
		<path class="st0" d="M109.3,109.3c-25,25-65.5,25-90.5,0c-25-25-25-65.5,0-90.5c25-25,65.5-25,90.5,0c0,0,0,0,0,0
			C134.2,43.7,134.2,84.3,109.3,109.3"/>
	</g>
</g>
</svg>
