<svg xmlns="http://www.w3.org/2000/svg" viewBox="0 0 97.39 97.39"><defs><style>.cls-1{fill:#2c2c2c;}</style></defs><title>insta</title><g id="Слой_2" data-name="Слой 2"><g id="Capa_1" data-name="Capa 1"><path class="cls-1" d="M12.5,0H84.89a12.2,12.2,0,0,1,12.5,12.5V84.89a12.2,12.2,0,0,1-12.5,12.5H12.5A12.2,12.2,0,0,1,0,84.89V12.5A12.2,12.2,0,0,1,12.5,0ZM71,10.82a4.4,4.4,0,0,0-4.39,4.39V25.7A4.41,4.41,0,0,0,71,30.09H82a4.4,4.4,0,0,0,4.38-4.39V15.21A4.39,4.39,0,0,0,82,10.82ZM86.39,41.19H77.82a28.51,28.51,0,0,1,1.25,8.35c0,16.2-13.56,29.34-30.28,29.34S18.52,65.74,18.52,49.54a28.46,28.46,0,0,1,1.25-8.35H10.82V82.33A3.89,3.89,0,0,0,14.7,86.2H82.52a3.88,3.88,0,0,0,3.87-3.87V41.19ZM48.79,29.53c-10.8,0-19.56,8.49-19.56,19S38,67.44,48.79,67.44,68.35,59,68.35,48.49,59.59,29.53,48.79,29.53Z"/></g></g></svg>