<?xml version="1.0" encoding="utf-8"?>
<!-- Generator: Adobe Illustrator 22.1.0, SVG Export Plug-In . SVG Version: 6.00 Build 0)  -->
<svg version="1.1" id="Слой_1" focusable="false"
	 xmlns="http://www.w3.org/2000/svg" xmlns:xlink="http://www.w3.org/1999/xlink" x="0px" y="0px" width="448px" height="95.9px"
	 viewBox="0 0 448 95.9" style="enable-background:new 0 0 448 95.9;" xml:space="preserve">
<path fill="#ffffff" d="M416,0H272v-144c0-17.7-14.3-32-32-32h-32c-17.7,0-32,14.3-32,32V0H32C14.3,0,0,14.3,0,32v32c0,17.7,14.3,32,32,32h144v144
	c0,17.7,14.3,32,32,32h32c17.7,0,32-14.3,32-32V96h144c17.7,0,32-14.3,32-32V32C448,14.3,433.7,0,416,0z"/>
</svg>
